<svg xmlns="http://www.w3.org/2000/svg" width="1091.693" height="148.63" viewBox="0 0 1091.693 148.63">
  <g id="Logo" transform="translate(-94.05 -165.193)">
    <path id="Vladimir" d="M179.809-26.8H58.22l60.694,145.626ZM241.9,97.791V-26.8H193.83V115.819h79.523V97.791Zm39.461,18.028H402.955L342.261-29.807ZM416.976-26.8V115.819h36.456c39.261,0,70.91-32.05,70.91-71.311S492.694-26.8,453.433-26.8ZM560-26.8h-19.63V115.819H560Zm20.031-2.4V115.819H712.234V-29.206l-66.1,81.927ZM751.9-26.8h-19.63V115.819H751.9Zm72.913,79.523a39.762,39.762,0,1,0,0-79.523H771.927V115.819H875.488Z" transform="translate(310.256 195)" fill="#fff"/>
    <path id="By" d="M64.747,38.513A38.043,38.043,0,0,0,40.91-29.192H2.05V113.429H48.923A39.148,39.148,0,0,0,64.747,38.513ZM90.187-29.192l54.084,66.5v76.118H163.9V37.311l54.484-66.5Z" transform="translate(92 197.39)" fill="#fff"/>
  </g>
</svg>
